<svg width="158" height="20" viewBox="0 0 158 20" fill="none" xmlns="http://www.w3.org/2000/svg">
<g clip-path="url(#clip0_2473_7144)">
<path d="M20 10.0001C20 4.47668 15.5234 0.00012207 10 0.00012207C4.47656 0.00012207 0 4.47668 0 10.0001C0 15.5236 4.47656 20.0001 10 20.0001C10.0586 20.0001 10.1172 20.0001 10.1758 19.9962V12.215H8.02734V9.71106H10.1758V7.86731C10.1758 5.73059 11.4805 4.56653 13.3867 4.56653C14.3008 4.56653 15.0859 4.63293 15.3125 4.66418V6.89856H14C12.9648 6.89856 12.7617 7.39075 12.7617 8.1134V9.70715H15.2422L14.918 12.2111H12.7617V19.6134C16.9414 18.4142 20 14.5665 20 10.0001Z" fill="white"/>
</g>
<path fill-rule="evenodd" clip-rule="evenodd" d="M46 6.3135C46 2.82672 48.8266 0.00012207 52.3134 0.00012207H59.6867C63.1735 0.00012207 66 2.82672 66 6.3135V13.6868C66 17.1736 63.1735 20.0002 59.6867 20.0002H52.3134C48.8266 20.0002 46 17.1736 46 13.6868V6.3135ZM52.3134 1.56695C49.6919 1.56695 47.5668 3.69205 47.5668 6.3135V13.6868C47.5668 16.3082 49.6919 18.4333 52.3134 18.4333H59.6867C62.3081 18.4333 64.4332 16.3082 64.4332 13.6868V6.3135C64.4332 3.69205 62.3081 1.56695 59.6867 1.56695H52.3134Z" fill="white"/>
<circle cx="61.4463" cy="4.55381" r="1.25681" fill="white"/>
<path fill-rule="evenodd" clip-rule="evenodd" d="M56.0001 6.59429C54.1191 6.59429 52.5942 8.11919 52.5942 10.0002C52.5942 11.8813 54.1191 13.4062 56.0001 13.4062C57.8812 13.4062 59.4061 11.8813 59.4061 10.0002C59.4061 8.11919 57.8812 6.59429 56.0001 6.59429ZM51.0273 10.0002C51.0273 7.25386 53.2537 5.02747 56.0001 5.02747C58.7465 5.02747 60.9729 7.25386 60.9729 10.0002C60.9729 12.7466 58.7465 14.973 56.0001 14.973C53.2537 14.973 51.0273 12.7466 51.0273 10.0002Z" fill="white"/>
<g clip-path="url(#clip1_2473_7144)">
<path d="M112 3.79887C111.256 4.12512 110.464 4.34137 109.637 4.44637C110.487 3.93887 111.136 3.14137 111.441 2.18012C110.649 2.65262 109.774 2.98637 108.841 3.17262C108.089 2.37137 107.016 1.87512 105.846 1.87512C103.576 1.87512 101.749 3.71762 101.749 5.97637C101.749 6.30137 101.776 6.61387 101.844 6.91137C98.435 6.74512 95.4188 5.11137 93.3925 2.62262C93.0387 3.23637 92.8313 3.93887 92.8313 4.69512C92.8313 6.11512 93.5625 7.37387 94.6525 8.10262C93.9937 8.09012 93.3475 7.89887 92.8 7.59762C92.8 7.61012 92.8 7.62637 92.8 7.64262C92.8 9.63512 94.2212 11.2901 96.085 11.6714C95.7512 11.7626 95.3875 11.8064 95.01 11.8064C94.7475 11.8064 94.4825 11.7914 94.2337 11.7364C94.765 13.3601 96.2725 14.5539 98.065 14.5926C96.67 15.6839 94.8988 16.3414 92.9813 16.3414C92.645 16.3414 92.3225 16.3264 92 16.2851C93.8162 17.4564 95.9688 18.1251 98.29 18.1251C105.835 18.1251 109.96 11.8751 109.96 6.45762C109.96 6.27637 109.954 6.10137 109.945 5.92762C110.759 5.35012 111.442 4.62887 112 3.79887Z" fill="white"/>
</g>
<g clip-path="url(#clip2_2473_7144)">
<path d="M156.191 0.00012207H139.809C138.81 0.00012207 138 0.810122 138 1.80928V18.1909C138 19.1901 138.81 20.0001 139.809 20.0001H156.191C157.19 20.0001 158 19.1901 158 18.1909V1.80928C158 0.810122 157.19 0.00012207 156.191 0.00012207ZM144.189 17.2694C144.189 17.5602 143.953 17.7959 143.662 17.7959H141.421C141.13 17.7959 140.895 17.5602 140.895 17.2694V7.87462C140.895 7.58384 141.13 7.34813 141.421 7.34813H143.662C143.953 7.34813 144.189 7.58384 144.189 7.87462V17.2694ZM142.542 6.46253C141.366 6.46253 140.413 5.50928 140.413 4.33342C140.413 3.15756 141.366 2.20431 142.542 2.20431C143.718 2.20431 144.671 3.15756 144.671 4.33342C144.671 5.50928 143.718 6.46253 142.542 6.46253ZM155.901 17.3118C155.901 17.5792 155.684 17.7959 155.417 17.7959H153.012C152.745 17.7959 152.528 17.5792 152.528 17.3118V12.9051C152.528 12.2478 152.721 10.0245 150.81 10.0245C149.328 10.0245 149.027 11.5462 148.967 12.2292V17.3118C148.967 17.5792 148.75 17.7959 148.483 17.7959H146.157C145.889 17.7959 145.673 17.5792 145.673 17.3118V7.83222C145.673 7.56489 145.889 7.34813 146.157 7.34813H148.483C148.75 7.34813 148.967 7.56489 148.967 7.83222V8.65185C149.516 7.82709 150.333 7.19049 152.072 7.19049C155.923 7.19049 155.901 10.7882 155.901 12.7649V17.3118Z" fill="white"/>
</g>
<defs>
<clipPath id="clip0_2473_7144">
<rect width="20" height="20" fill="white"/>
</clipPath>
<clipPath id="clip1_2473_7144">
<rect width="20" height="20" fill="white" transform="translate(92 0.00012207)"/>
</clipPath>
<clipPath id="clip2_2473_7144">
<rect width="20" height="20" fill="white" transform="translate(138 0.00012207)"/>
</clipPath>
</defs>
</svg>
