<svg width="79" height="34" viewBox="0 0 79 34" fill="none" xmlns="http://www.w3.org/2000/svg">
<path fill-rule="evenodd" clip-rule="evenodd" d="M77.6901 12.9998L70.696 3.00051C69.407 1.15371 66.8857 0 64.1411 0H56.7128V2.83301H56.716C58.0858 2.83301 59.3464 3.40866 59.9906 4.33231L66.9829 14.333C67.5671 15.1667 67.858 16.0826 67.858 17C67.858 17.9174 67.5671 18.8328 66.9829 19.667L59.9906 29.6677C59.3464 30.5913 58.0858 31.167 56.716 31.167H56.7128V34H64.1411C66.8857 34 69.407 32.8463 70.696 30.9995L77.6901 21.0002C78.5627 19.7488 79 18.3751 79 17C79 15.6249 78.5627 14.2512 77.6901 12.9998ZM41.8577 0H49.2872V2.83301H49.284C47.9142 2.83301 46.6536 3.40866 46.0081 4.33231L39.0178 14.333C38.4329 15.1667 38.142 16.0826 38.142 17C38.142 17.9174 38.4329 18.8328 39.0178 19.667L46.0081 29.6677C46.6536 30.5913 47.9142 31.167 49.284 31.167H49.2872V34H41.8577C39.1143 34 36.593 32.8463 35.304 30.9995L28.3099 21.0002C27.4373 19.7488 27 18.3751 27 17C27 15.6249 27.4373 14.2512 28.3099 12.9998L35.304 3.00051C36.593 1.15371 39.1143 0 41.8577 0Z" fill="white"/>
</svg>
